HIERARCHY
ROOT pelvis
{
  OFFSET 0 100 0
  CHANNELS 6 Xposition Yposition Zposition Zrotation Xrotation Yrotation
  JOINT pelvis_right_femur
  {
    OFFSET -10.78128 -3.44521 -0.5502486
    CHANNELS 3 Zrotation Xrotation Yrotation
    JOINT right_femur_tibia
    {
      OFFSET -0.8047443 -44.0398 -0.1307829
      CHANNELS 3 Zrotation Xrotation Yrotation
      JOINT right_tibia_foot
      {
        OFFSET 3.006224 -47.83518 -5
        CHANNELS 3 Zrotation Xrotation Yrotation
        End Site
        {
          OFFSET 0 -5 15
        }
      }
    }
  }
  JOINT pelvis_left_femur
  {
    OFFSET 10.78128 -3.44521 -0.5502486
    CHANNELS 3 Zrotation Xrotation Yrotation
    JOINT left_femur_tibia
    {
      OFFSET 0.8047443 -44.0398 -0.1307829
      CHANNELS 3 Zrotation Xrotation Yrotation
      JOINT left_tibia_foot
      {
        OFFSET -4.370144 -48.10324 -4.275266
        CHANNELS 3 Zrotation Xrotation Yrotation
        End Site
        {
          OFFSET 0 -5 15
        }
      }
    }
  }
  JOINT pelvis_spine1
  {
    OFFSET 0 6.468898 -3.129235
    CHANNELS 3 Zrotation Xrotation Yrotation
    JOINT spine1
    {
      OFFSET 0 23.15396 4.99043
      CHANNELS 3 Zrotation Xrotation Yrotation
      JOINT spine2
      {
        OFFSET 0 20.79997 -5.064912
        CHANNELS 3 Zrotation Xrotation Yrotation
        JOINT neck
        {
          OFFSET 0 14.38658 9.616178
          CHANNELS 3 Zrotation Xrotation Yrotation
          End Site
          {
            OFFSET 0 20 0
          }
        }
      }
      JOINT right_manubrium
      {
        OFFSET -5.722621 16.35077 3.967754
        CHANNELS 3 Zrotation Xrotation Yrotation
        JOINT right_clavicle
        {
          OFFSET -13.16364 1.694482 -4.693211
          CHANNELS 3 Zrotation Xrotation Yrotation
          JOINT right_humerus
          {
            OFFSET -28.5034 -0.3100689 -2.792744
            CHANNELS 3 Zrotation Xrotation Yrotation
            JOINT right_radius
            {
              OFFSET -25.15693 0.02248979 -1.271978
              CHANNELS 3 Zrotation Xrotation Yrotation
              End Site
              {
                OFFSET -15 0 0
              }
            }
          }
        }
      }
      JOINT left_manubrium
      {
        OFFSET 5.722621 16.35077 3.967754
        CHANNELS 3 Zrotation Xrotation Yrotation
        JOINT left_clavicle
        {
          OFFSET 13.16364 1.694482 -4.693211
          CHANNELS 3 Zrotation Xrotation Yrotation
          JOINT left_humerus
          {
            OFFSET 29.39168 -1.063119 -2.237045
            CHANNELS 3 Zrotation Xrotation Yrotation
            JOINT left_radius
            {
              OFFSET 24.59957 -0.9528479 0.9047498
              CHANNELS 3 Zrotation Xrotation Yrotation
              End Site
              {
                OFFSET 15 -0 -0
              }
            }
          }
        }
      }
    }
  }
}
MOTION
Frames: 15
Frame Time: 0.0416666666667
0 103.5113 0 2.729825 -0.1883656 0.2407654 3.398576 -16.15877 11.81222 -0 36.87822 -0 -2.460459 -18.54431 -2.970718 -9.073756 9.717775 -22.41023 -0 4.174646 -0 21.98497 -8.98896 29.30477 -3.048151 -2.431778 4.530157 3.391713 9.976408 -7.582817 1.915155 21.44331 6.1105 2.167046 -25.85993 10.2111 5.514008 -18.92558 11.25972 86.16282 37.92042 -17.9943 -0 0 13.7566 -6.182373 9.110372 4.164574 5.247955 -19.84902 -1.758889 -90.51071 21.62358 18.81847 0 0 -18.29632 13.96696 14.03084 -2.362458
0.4948728 103.3368 1.575157 2.174107 0.845886 0.4121649 4.836763 -18.76009 12.83021 -0 37.30444 -0 -2.718461 -17.68265 -2.744101 -8.990067 9.655076 -22.3247 -0 4.70045 -0 23.24413 -8.805135 30.344 -3.176414 -2.393153 4.413754 3.596255 9.933115 -7.683699 1.849237 21.41371 6.27917 2.087157 -26.04835 10.41181 5.43925 -19.02586 11.34104 86.26461 38.44249 -18.01251 -0 0 13.41675 -5.789911 8.981832 4.319624 5.077917 -19.79545 -1.886151 -89.84735 21.53539 18.26587 0 0 -19.78179 14.33973 13.30313 -2.727176
0.8409579 103.0736 3.404497 1.476177 1.539108 0.5705831 5.250899 -21.40734 10.533 -0 33.3747 -0 -4.33235 -15.53211 -2.346592 -8.455304 10.42002 -21.98927 -0 4.806436 -0 18.92666 -12.74578 29.37225 -3.108994 -2.33764 4.309724 3.762912 9.984198 -7.781214 1.741106 21.34554 6.347042 2.048419 -26.16145 10.35346 5.462961 -18.96786 11.51474 86.28661 38.21416 -18.28941 -0 0 13.04062 -5.805419 8.928234 4.715035 4.867933 -19.75458 -2.040412 -89.55046 21.78734 18.08427 0 0 -20.4968 13.84441 12.59649 -2.146288
1.093913 102.7682 5.432083 0.8287769 2.225009 0.7108473 5.881518 -23.99642 9.579381 -0 30.84772 -0 -5.271302 -13.87114 -2.230836 -7.981862 10.9711 -21.62624 -0 5.111239 -0 15.96447 -15.49391 28.5822 -3.000277 -2.224827 4.246237 3.770118 10.04462 -7.798861 1.644545 21.2999 6.429997 2.108776 -26.13317 10.24591 5.453647 -18.85714 11.61432 86.40096 38.06121 -18.51666 -0 0 12.66188 -6.111352 8.929547 5.053886 4.820245 -19.79897 -2.143714 -89.2571 21.75704 17.84543 0 0 -20.90088 13.59207 12.01292 -1.86273
1.298309 102.3797 7.765277 0.1886345 2.894343 0.866116 6.65392 -27.09746 8.700862 -0 27.78595 -0 -6.039752 -11.59044 -1.931635 -7.506661 11.50267 -20.86534 -0 5.715767 -0 13.85702 -17.63619 27.45766 -2.865849 -2.109167 4.193579 3.755749 10.12087 -7.808466 1.555972 21.25523 6.472303 2.176063 -26.0653 10.08098 5.46002 -18.71287 11.71332 86.49103 37.77509 -18.75223 -0 0 12.31201 -6.50218 8.951335 5.394338 4.780993 -19.84761 -2.241512 -89.05203 21.74893 17.67315 0 0 -21.06729 13.21475 11.5116 -1.455346
1.481156 101.8909 10.47632 -0.3748826 3.52149 1.070122 7.365787 -30.16839 7.952298 -0 24.49892 -0 -6.598752 -9.171982 -1.618583 -7.074075 12.0583 -19.93609 -0 6.599331 -0 12.12668 -19.34094 26.1065 -2.735467 -1.993498 4.152857 3.717018 10.19503 -7.805403 1.480782 21.21945 6.499096 2.249409 -25.9669 9.907816 5.464855 -18.5639 11.79247 86.57614 37.49471 -18.9536 -0 0 11.9992 -6.915582 8.983225 5.695325 4.767338 -19.90317 -2.323666 -88.87783 21.70401 17.51172 0 0 -21.12867 12.87496 11.09356 -1.096407
1.661955 101.3029 13.67514 -0.8462364 4.045844 1.369768 7.910201 -32.9749 7.09329 -0 20.99458 -0 -7.039319 -6.520245 -1.21055 -6.678619 12.7211 -18.85434 -0 7.979327 -0 10.52229 -20.58319 24.42735 -2.61319 -1.887074 4.119447 3.677843 10.26767 -7.802736 1.4156 21.18739 6.508004 2.315134 -25.8604 9.730182 5.472363 -18.41938 11.86426 86.64402 37.19959 -19.13388 -0 0 11.72552 -7.315342 9.016541 5.968688 4.753874 -19.95491 -2.399635 -88.73852 21.66792 17.37709 0 0 -21.12533 12.52339 10.73544 -0.7267848
1.854528 100.6564 17.48072 -1.240414 4.351771 1.810002 8.189578 -35.09589 5.985926 -0 17.68534 -0 -7.419551 -3.7017 -0.6976266 -6.264605 13.54518 -17.68165 -0 10.14738 -0 8.556591 -21.29216 22.24976 -2.502001 -1.789432 4.092556 3.63838 10.33642 -7.799854 1.359542 21.15965 6.505119 2.373801 -25.74934 9.555925 5.480168 -18.28339 11.92739 86.69878 36.91086 -19.28989 -0 0 11.48781 -7.694014 9.049879 6.213534 4.741965 -20.00306 -2.468721 -88.62246 21.63364 17.2598 0 0 -21.08443 12.1822 10.42888 -0.3694329
2.072822 100.0449 22.00889 -1.603737 4.309345 2.411516 8.192569 -36.04776 4.554803 -0 15.10168 -0 -7.781019 -0.8571154 -0.0958294 -5.739354 14.48246 -16.38902 -0 13.52218 -0 5.77169 -21.2051 19.3268 -2.40066 -1.699746 4.071495 3.599922 10.40213 -7.797406 1.311108 21.13556 6.490734 2.425138 -25.63523 9.383348 5.488863 -18.15558 11.98386 86.73949 36.62507 -19.42347 -0 0 11.28359 -8.054644 9.083349 6.435942 4.728574 -20.0468 -2.532271 -88.52778 21.60454 17.16001 0 0 -21.00915 11.84313 10.16625 -0.0153608
2.329142 99.6239 27.32193 -2.001603 3.878888 3.12408 8.088979 -35.31933 3.015671 -0 13.76214 -0 -8.106135 1.530314 0.3927008 -5.014896 15.24971 -14.85394 -0 18.58961 -0 2.018397 -19.85582 15.57873 -2.307434 -1.615122 4.056599 3.558799 10.46537 -7.792826 1.269817 21.11617 6.464818 2.471094 -25.51427 9.209726 5.498708 -18.03358 12.03307 86.76529 36.34289 -19.53067 -0 0 11.11125 -8.407753 9.119126 6.640343 4.715 -20.08633 -2.589247 -88.45256 21.57551 17.07514 0 0 -20.89157 11.50699 9.946418 0.3331514
2.615724 99.59939 33.34312 -2.488764 3.237072 3.767406 8.238362 -32.56617 2.0437 -0 13.88815 -0 -8.381317 2.511354 0.2644192 -4.095415 15.20984 -12.93816 -0 25.80927 -0 -2.000745 -16.74397 11.56349 -2.220012 -1.532119 4.048859 3.510208 10.5272 -7.782778 1.235503 21.10305 6.425628 2.513675 -25.3803 9.029962 5.510553 -17.91404 12.07427 86.77313 36.06125 -19.60513 -0 0 10.971 -8.767911 9.160182 6.832266 4.70229 -20.12144 -2.638213 -88.39734 21.54182 17.00456 0 0 -20.715 11.17009 9.771103 0.6782275
2.878551 100.1497 39.77113 -3.025923 2.707417 4.033251 8.845182 -27.98163 2.461671 -0 15.15461 -0 -8.833749 1.100981 -1.007187 -3.164683 13.49572 -10.84609 -0 35.27495 -0 -4.660074 -12.02216 8.721309 -2.13607 -1.446752 4.049999 3.447722 10.58854 -7.76265 1.208295 21.0985 6.371265 2.555382 -25.22509 8.838631 5.525201 -17.79352 12.10598 86.75881 35.77807 -19.63722 -0 0 10.86448 -9.152245 9.209984 7.017473 4.692321 -20.15181 -2.676906 -88.36343 21.49735 16.94817 0 0 -20.45892 10.83021 9.644108 1.020387
3.056029 101.2548 46.14837 -3.297274 2.135226 3.671122 9.352893 -22.54455 3.873959 -0 16.58147 -0 -9.789932 -2.195317 -2.845672 -2.566454 9.709924 -9.454949 -0 46.07568 -0 -5.107049 -7.225889 8.224772 -2.053424 -1.355243 4.062306 3.364596 10.65011 -7.72739 1.188086 21.1049 6.300848 2.59895 -25.04022 8.631215 5.543009 -17.66969 12.12673 86.7179 35.49247 -19.61632 -0 0 10.79406 -9.577979 9.271546 7.202456 4.687078 -20.1771 -2.703025 -88.35235 21.43678 16.90713 0 0 -20.10531 10.48574 9.567989 1.360435
3.209302 102.6275 52.15841 -2.784459 0.7649682 2.824309 8.737839 -17.18687 4.141486 -0 16.66722 -0 -10.30005 -4.937664 -3.201511 -2.57395 4.285766 -9.321761 -0 55.97091 -0 -5.176689 -4.506502 9.012971 -1.970573 -1.255177 4.088151 3.255563 10.71193 -7.672623 1.174057 21.12394 6.216389 2.647041 -24.82009 8.406636 5.563151 -17.54297 12.13568 86.64761 35.20659 -19.53394 -0 0 10.76147 -10.0577 9.346033 7.393829 4.688324 -20.19718 -2.715107 -88.36452 21.35748 16.88378 0 0 -19.64837 10.13763 9.54022 1.698389
3.456449 103.9944 57.77818 -1.471408 -0.8321194 2.031614 7.015567 -11.57578 2.923789 -0 14.30592 -0 -9.134631 -6.12594 -1.789824 -2.971993 -2.603938 -9.132695 -0 62.31502 -0 -6.113546 -4.229154 9.246748 -1.887534 -1.147179 4.129092 3.119856 10.77305 -7.596698 1.164434 21.15538 6.123633 2.701102 -24.56596 8.169395 5.583291 -17.41802 12.13357 86.54827 34.92607 -19.38804 -0 0 10.76688 -10.59243 9.431233 7.596699 4.696392 -20.21207 -2.713684 -88.39849 21.26236 16.88174 0 0 -19.1034 9.789356 9.550546 2.034034
